<svg width="88" height="96" viewBox="0 0 88 96" fill="none" xmlns="http://www.w3.org/2000/svg">
<path d="M69.7733 0.286453C69.1242 0.605568 55.2431 14.121 54.3839 15.2661C53.1046 16.9555 54.1548 19.133 56.2551 19.133C56.656 19.133 57.2097 19.0016 57.458 18.8327C57.7253 18.6637 60.3793 16.1484 63.3388 13.2388L68.7614 7.964L68.6277 10.9674C68.3031 18.5511 67.1766 23.5631 64.7899 28.1809C62.2695 33.0239 58.3935 36.7032 53.0664 39.3124C49.4959 41.0581 45.9063 42.2595 37.1233 44.5684C29.734 46.5019 25.0561 48.2664 21.8102 50.35C16.5785 53.6726 13.3899 58.7033 12.588 64.9355C12.4734 65.9116 12.3207 66.9065 12.2825 67.113C12.2252 67.4509 11.9579 67.5823 10.8695 67.8451C3.78581 69.5533 -1.00669 76.8742 0.253489 84.0261C0.826297 87.3299 2.29651 89.9579 4.83596 92.3043C6.4971 93.806 8.86471 95.1013 11.0605 95.6644C12.7598 96.1149 16.6167 96.1149 18.297 95.6457C23.3186 94.2941 26.9464 90.8589 28.6648 85.8469C29.0467 84.7206 29.1039 84.195 29.1039 81.6421C29.1039 78.939 29.0658 78.6199 28.5693 77.2308C27.7674 74.9595 26.6791 73.3076 24.8079 71.468C23.3759 70.0789 22.8794 69.7222 21.161 68.915C20.0727 68.3894 18.717 67.8638 18.1824 67.7512C17.0177 67.4884 17.0368 67.5823 17.4568 65.1983C18.4879 59.4354 21.3901 55.7375 27.0418 52.9405C29.2949 51.833 32.8463 50.6879 39.7009 48.8483C50.3933 45.995 54.6512 44.3619 59.1764 41.4148C68.284 35.4455 72.9429 25.872 73.4393 12.0374C73.4966 10.1603 73.6112 8.62099 73.6684 8.62099C73.7257 8.62099 76.1506 10.9487 79.0337 13.7832C84.5518 19.2269 84.8955 19.4709 86.1366 19.1143C86.9194 18.9078 87.7595 18.1006 87.9123 17.4248C88.2178 16.0921 88.1605 16.0357 80.1221 8.0954C75.9024 3.92812 72.2173 0.399086 71.9309 0.248909C71.2626 -0.088974 70.4989 -0.088974 69.7733 0.286453ZM16.6167 72.3315C21.562 73.3639 24.9797 78.1131 24.2733 82.9749C23.5095 88.2872 18.7361 91.8538 13.3135 91.1968C9.07474 90.6712 5.50423 87.1609 4.96961 82.9937C4.64502 80.4783 5.2942 78.0004 6.74532 76.0482C7.79547 74.6403 8.73105 73.8895 10.3922 73.1011C12.5116 72.0874 14.3637 71.8622 16.6167 72.3315Z" fill="#C77A07"/>
<path d="M0.788257 5.50476C0.139074 6.10545 0.0817936 6.23685 0.0817936 7.1942V8.2454L5.61894 13.6891L11.137 19.1329L5.67622 24.5391C2.12481 28.0493 0.158168 30.1142 0.0817936 30.4521C-0.319172 31.9913 0.807351 33.5869 2.29665 33.5869C2.71671 33.5869 3.25133 33.4931 3.48046 33.3804C3.70958 33.2678 6.3254 30.79 9.30401 27.8992L14.6884 22.6056L20.2256 28.0493L25.7627 33.4931H26.8319C27.8057 33.4931 27.9394 33.4367 28.5504 32.7985C29.0659 32.2354 29.1996 31.935 29.1996 31.3343C29.1996 30.9026 29.085 30.3394 28.9322 30.0579C28.7795 29.7763 26.2782 27.2234 23.3951 24.3889L18.1253 19.2267L23.3569 14.0646C26.2209 11.2301 28.7222 8.69592 28.8941 8.43312C29.295 7.8512 29.295 6.6686 28.8941 5.99282C28.2449 4.92285 26.5837 4.50988 25.5718 5.16688C25.3045 5.33582 22.7268 7.79489 19.8437 10.6106L14.5929 15.754L9.3422 10.5731C6.45906 7.73857 3.86233 5.27951 3.57592 5.12934C3.28952 4.97916 2.71671 4.86654 2.27756 4.86654C1.66656 4.86654 1.36107 4.99793 0.788257 5.50476Z" fill="#C77A07"/>
<path d="M55.0526 62.8518C54.7089 63.0583 54.3079 63.4149 54.1361 63.6402C53.7542 64.1845 53.7351 65.3484 54.0979 66.0241C54.2507 66.3057 56.7519 68.8586 59.6351 71.6931L64.9049 76.8553L59.5587 82.1113C56.0264 85.6028 54.117 87.6114 53.9261 88.0807C53.2005 89.7889 54.7662 91.6285 56.6756 91.2906C57.2675 91.178 58.1839 90.352 62.9001 85.753L68.4372 80.3468L73.9744 85.7718L79.5306 91.2155H80.5235C81.3445 91.2155 81.6118 91.1216 82.1655 90.6336C82.8911 90.0141 83.1775 89.1506 82.9484 88.2684C82.872 87.9305 80.9244 85.8656 77.3539 82.3366L71.8741 76.9492L77.1439 71.7307C80.0461 68.8774 82.5665 66.3245 82.7383 66.0617C83.3875 65.0856 82.9675 63.5275 81.8409 62.8705C81.1536 62.4576 80.4662 62.4012 79.6643 62.7016C79.3779 62.8142 76.7048 65.2733 73.7262 68.1829L68.3418 73.4764L62.9383 68.1829C59.9787 65.2921 57.3629 62.8142 57.1338 62.7016C56.5228 62.4012 55.7209 62.4576 55.0526 62.8518Z" fill="#C77A07"/>
</svg>
