<svg width="143" height="143" viewBox="0 0 143 143" fill="none" xmlns="http://www.w3.org/2000/svg">
<path d="M24.2988 19.523C21.031 20.5843 19.0201 23.489 19.3553 26.6451C19.6066 29.1308 20.8914 31.0579 23.042 32.2031C24.606 33.041 27.6224 33.041 29.2144 32.2031C30.5271 31.5048 31.8398 30.1083 32.3705 28.8236L32.7336 27.9298H40.526C44.8271 27.9298 48.3183 27.9857 48.3183 28.0415C48.3183 28.0974 47.4805 28.6281 46.4471 29.2146C42.5928 31.3372 39.4646 33.6833 36.3086 36.8673C31.365 41.7829 28.0135 47.2013 25.8349 53.681C24.8853 56.5298 23.7402 62.2275 23.7402 64.0988V65.0204L22.0365 65.1322C19.3273 65.3277 19.2715 65.4673 19.2715 71.5001C19.2715 78.2591 18.7967 77.7843 25.4998 77.7843C32.3705 77.7843 31.8398 78.315 31.8398 71.5001C31.8398 65.4115 31.8119 65.3556 29.1865 65.1322C27.3711 64.9925 27.399 65.0763 28.0693 61.0265C29.3262 53.1503 32.8732 46.0283 38.3474 40.3027C41.6152 36.8953 44.8551 34.4933 48.9328 32.3986C53.5691 30.0525 60.0488 28.2091 63.7076 28.2091H64.7969V30.1363C64.7969 32.9851 64.741 32.9572 71.5558 32.9572C78.2031 32.9572 78.2031 32.9572 78.2031 30.0245V28.2091H79.2924C82.9512 28.2091 89.4308 30.0525 94.0672 32.3986C105.854 38.4035 113.897 50.0781 115.238 63.1492L115.405 64.9925L113.841 65.1322C111.188 65.3556 111.16 65.3835 111.16 71.5001C111.16 78.315 110.629 77.7843 117.5 77.7843C124.203 77.7843 123.729 78.2591 123.729 71.5001C123.729 65.4673 123.673 65.3277 120.963 65.1322L119.26 65.0204V64.0988C119.26 62.2554 118.143 56.7533 117.193 53.8486C113.786 43.4587 106.44 34.6888 96.5808 29.2146C95.5195 28.6281 94.6816 28.0974 94.6816 28.0415C94.6816 27.9857 98.1728 27.9298 102.474 27.9298H110.266L110.629 28.8236C111.16 30.1083 112.473 31.5048 113.786 32.2031C115.378 33.041 118.394 33.041 119.958 32.2031C121.271 31.5048 122.332 30.4156 123.058 29.047C123.756 27.7064 123.756 24.5224 123.058 23.1818C121.718 20.6402 119.735 19.4392 116.886 19.4392C114.037 19.4392 111.998 20.6681 110.769 23.098L110.294 24.0197H94.2627H78.2031V22.0925C78.2031 19.2437 78.231 19.2716 71.5 19.2716C64.7689 19.2716 64.7969 19.2437 64.7969 22.0925V24.0197H48.7373H32.7057L32.2308 23.098C31.5885 21.8132 30.4713 20.696 29.2144 20.0536C28.0135 19.4392 25.416 19.1599 24.2988 19.523ZM28.0973 24.1314C28.8234 24.8576 29.0469 25.3044 29.0469 26.1144C29.0469 27.5667 27.5666 29.047 26.1142 29.047C24.6619 29.047 23.1816 27.5667 23.1816 26.1144C23.1816 24.662 24.6619 23.1818 26.1142 23.1818C26.9242 23.1818 27.3711 23.4052 28.0973 24.1314ZM74.293 26.1144V29.047H71.5H68.707V26.1144V23.1818H71.5H74.293V26.1144ZM118.869 24.1314C119.595 24.8576 119.818 25.3044 119.818 26.1144C119.818 26.9244 119.595 27.3712 118.869 28.0974C118.143 28.8236 117.696 29.047 116.886 29.047C116.076 29.047 115.629 28.8236 114.903 28.0974C114.177 27.3712 113.953 26.9244 113.953 26.1144C113.953 25.3044 114.177 24.8576 114.903 24.1314C115.629 23.4052 116.076 23.1818 116.886 23.1818C117.696 23.1818 118.143 23.4052 118.869 24.1314ZM27.9297 71.5001V74.0138H25.5557H23.1816V71.5001V68.9865H25.5557H27.9297V71.5001ZM119.818 71.5001V74.0138H117.444H115.07V71.5001V68.9865H117.444H119.818V71.5001Z" fill="#C77A07"/>
<path d="M66.9753 41.1125C66.2212 41.699 45.8046 77.5607 45.8325 78.259C45.8325 78.6221 48.0111 83.3701 50.6644 88.8164L55.4962 98.7314L53.7646 98.927C50.9437 99.2063 48.7372 100.659 47.5921 102.977C47.2011 103.759 47.0335 104.82 46.9777 106.859C46.8939 109.289 46.9497 109.875 47.4804 111.104C48.2624 112.948 50.1337 114.679 51.8095 115.126L53.0663 115.461V118.925C53.0663 122.192 53.0943 122.388 53.7646 123.03L54.4349 123.729H71.4999H88.565L89.2353 123.03C89.9056 122.388 89.9335 122.192 89.9335 118.925V115.461L91.1345 115.154C92.7265 114.707 94.6257 113.031 95.4077 111.328C95.9663 110.155 96.0781 109.429 96.0781 107.362C96.0781 105.965 95.9384 104.401 95.7429 103.871C94.8212 101.105 92.3634 99.2342 89.2632 98.927L87.5036 98.7314L92.3355 88.8164C94.9888 83.3701 97.1673 78.6221 97.1673 78.259C97.1952 77.5607 76.7786 41.699 76.0245 41.1125C75.2704 40.526 74.0974 40.7215 73.4829 41.5035C72.8964 42.2297 72.8964 42.4811 72.8964 58.5686V74.9074L74.1253 76.1084C76.3318 78.259 76.5273 80.7727 74.6001 82.6998C72.7847 84.5152 70.2152 84.5152 68.3997 82.6998C66.4726 80.7727 66.6681 78.259 68.8745 76.1084L70.1034 74.9074V58.5686C70.1034 42.4811 70.1034 42.2297 69.5169 41.5035C68.9025 40.7215 67.7294 40.526 66.9753 41.1125ZM65.3554 74.0416C63.8751 75.6615 63.2886 77.2535 63.2607 79.5996C63.2607 83.007 64.8247 85.5486 67.9529 87.1965C69.6286 88.1182 73.3712 88.1182 75.047 87.1965C76.8904 86.2189 78.1193 84.99 78.9572 83.2863C79.5995 81.9736 79.7392 81.3313 79.7392 79.5996C79.7113 77.2535 79.1247 75.6615 77.6445 74.0416L76.8066 73.1479L76.8624 61.6688L76.9462 50.1897L85.0179 64.2383L93.0616 78.2869L90.0732 84.4594C88.4253 87.8668 86.1909 92.4752 85.1017 94.7375L83.1466 98.8711H71.4999H59.8533L57.8982 94.7375C56.8089 92.4752 54.5745 87.8668 52.9267 84.4594L49.9382 78.2869L57.982 64.2383L66.0536 50.1897L66.1374 61.6688L66.1933 73.1479L65.3554 74.0416ZM90.4921 103.2C91.721 103.843 92.1679 104.96 92.1679 107.39C92.1679 109.401 92.112 109.54 91.2183 110.546L90.2687 111.579H71.4999H52.7312L51.7816 110.546C50.8878 109.54 50.832 109.401 50.832 107.39C50.832 104.988 51.2788 103.843 52.4519 103.228C53.597 102.586 89.2911 102.586 90.4921 103.2ZM86.0234 117.724V119.818H71.4999H56.9765V117.724V115.629H71.4999H86.0234V117.724Z" fill="#C77A07"/>
</svg>
