<svg width="93" height="96" viewBox="0 0 93 96" fill="none" xmlns="http://www.w3.org/2000/svg">
<path d="M3.3603 0.127068C2.01618 0.508362 0.980844 1.54631 0.381439 3.11383C0.0181638 4.06705 0 4.2577 0 47.9153C0 78.1853 0.0544913 92.0177 0.199801 92.5684C0.435931 93.564 1.4531 94.9197 2.43395 95.534L3.17866 96H46.4993H89.8199L90.5464 95.534C90.946 95.2798 91.5273 94.7714 91.8542 94.3689C93.0893 92.8861 92.9985 96.4025 92.9985 47.9364C92.9985 4.2577 92.9803 4.06705 92.6171 3.11383C92.163 1.94878 91.4909 1.10147 90.5464 0.508362L89.8199 0.0423355L46.8625 -2.28882e-05C23.2315 -2.28882e-05 3.66908 0.0423355 3.3603 0.127068ZM89.6201 3.77049L90.0923 4.19415V11.9258V19.6363H46.4993H2.9062V11.9258V4.19415L3.37846 3.77049L3.86888 3.32566H46.4993H89.1296L89.6201 3.77049ZM90.0923 57.3839V91.7423L89.6927 92.2295L89.3113 92.7167H46.4993H3.70541L3.30581 92.293L2.9062 91.8482V57.4475V23.0256H46.4993H90.0923V57.3839Z" fill="#C77A07"/>
<path d="M9.2454 10.2949C8.93662 10.5703 8.82764 10.9092 8.82764 11.4811C8.82764 12.7944 9.29989 13.0698 11.5522 13.0698C13.7319 13.0698 14.1678 12.8156 14.1678 11.4811C14.1678 10.1466 13.7319 9.89242 11.5522 9.89242C9.97195 9.89242 9.59052 9.95597 9.2454 10.2949Z" fill="#C77A07"/>
<path d="M19.3808 10.1466C18.6543 10.8033 18.7269 12.5826 19.5261 12.9428C19.9984 13.1546 23.2316 13.091 23.613 12.858C24.394 12.3708 24.4122 10.6127 23.6312 10.1255C23.1226 9.78653 19.7623 9.8289 19.3808 10.1466Z" fill="#C77A07"/>
<path d="M29.2436 10.3161C28.735 10.9092 28.7713 12.0319 29.2981 12.6038C29.6795 13.0275 29.9156 13.0698 31.5504 13.0698C33.6211 13.0698 34.057 12.8368 34.2568 11.6506C34.3476 11.0998 34.275 10.8668 33.9117 10.4432C33.4576 9.9136 33.3304 9.89242 31.5141 9.89242C29.843 9.89242 29.5524 9.95597 29.2436 10.3161Z" fill="#C77A07"/>
<path d="M57.0507 10.6064C56.8497 10.8487 56.7788 11.147 56.7788 11.6503C56.7788 12.1536 56.8497 12.4518 57.0507 12.6942C57.3107 13.0297 57.8071 13.0483 70.4782 13.0483C83.1492 13.0483 83.6456 13.0297 83.9057 12.6942C84.2839 12.2095 84.2839 11.0911 83.9057 10.6064C83.6456 10.2709 83.1492 10.2522 70.4782 10.2522C57.8071 10.2522 57.3107 10.2709 57.0507 10.6064Z" fill="#C77A07"/>
<path d="M7.71972 28.6392L7.26562 29.1476V57.8713C7.26562 86.1714 7.26562 86.5739 7.6289 86.9976C7.8287 87.2306 8.17381 87.4636 8.39178 87.5271C8.62791 87.5907 25.9561 87.6119 46.9171 87.5907L85.0429 87.5271L85.388 87.0188C85.715 86.5316 85.7331 85.769 85.7331 57.829V29.1476L85.279 28.6392L84.8431 28.1096H46.4994H8.15565L7.71972 28.6392ZM83.0086 57.8713V84.2438H46.4994H9.99019V57.8713V31.4989H46.4994H83.0086V57.8713Z" fill="#C77A07"/>
<path d="M49.6963 41.2216C49.4239 41.3487 48.2251 45.0557 44.3743 57.6805L39.3975 73.97L39.7789 74.3302C40.2512 74.775 41.9222 74.8597 42.8304 74.4784C43.2845 74.2878 43.448 74.0548 43.7386 73.0592C43.9384 72.4025 46.1544 65.1157 48.661 56.8968C51.1676 48.6567 53.2201 41.8147 53.2201 41.6876C53.2201 41.5817 53.0566 41.3699 52.875 41.2428C52.4754 41.0098 50.2231 40.9886 49.6963 41.2216Z" fill="#C77A07"/>
<path d="M55.3816 49.2286C55.1455 49.97 55.2545 52.3213 55.5451 52.745C55.6722 52.9144 57.8519 54.1854 60.3948 55.5623C62.9559 56.918 64.9721 58.1254 64.8994 58.2101C64.8086 58.2948 62.7198 59.4811 60.2132 60.8368C57.7247 62.1924 55.5996 63.3999 55.4906 63.5058C55.2545 63.7811 55.2545 67.0009 55.5087 67.2975C55.6359 67.4458 57.5794 66.429 62.1567 63.8235C65.7168 61.79 68.6775 60.0318 68.732 59.9259C68.9681 59.4599 69.0408 57.8288 68.8591 57.0239L68.6775 56.1766L62.7198 52.7026C55.0365 48.233 55.6177 48.5084 55.3816 49.2286Z" fill="#C77A07"/>
<path d="M30.4788 52.5753L24.176 56.2611L24.0489 57.2355C23.9035 58.5065 24.067 59.6715 24.4666 60.0952C24.6483 60.2858 27.5908 62.044 31.0056 64.014C36.0006 66.8737 37.2721 67.5515 37.4537 67.3185C37.7988 66.9372 37.7262 64.014 37.3629 63.5268C37.1994 63.3361 35.0198 62.0652 32.5313 60.7307C30.0247 59.3962 27.9722 58.2523 27.9722 58.1887C27.9722 58.1252 29.8976 57.0449 32.2589 55.7527C37.8897 52.7024 37.5264 52.999 37.6717 51.495C37.817 49.9487 37.6172 48.9955 37.1268 48.9319C36.9451 48.9107 33.9481 50.5418 30.4788 52.5753Z" fill="#C77A07"/>
</svg>
