<svg width="59" height="59" viewBox="0 0 59 59" fill="none" xmlns="http://www.w3.org/2000/svg">
<path d="M23.0093 20.5404L5.24463 23.2007L17.5432 35.1717L14.8102 50.468L29.8418 43.1524L44.8734 51.133L41.4571 33.8416L53.7557 23.2007L38.0409 21.2055L29.8418 5.24414L23.0093 20.5404Z" fill="#EBA132" stroke="#EBA132" stroke-width="1.31111"/>
<path d="M55.128 22.4218C54.9047 21.7336 54.4839 21.1263 53.9179 20.6755C53.352 20.2247 52.6659 19.9504 51.9452 19.8867L38.2577 18.7067L32.8924 5.94794C32.613 5.27846 32.1418 4.70661 31.5382 4.30437C30.9345 3.90213 30.2253 3.6875 29.4999 3.6875C28.7744 3.6875 28.0652 3.90213 27.4616 4.30437C26.8579 4.70661 26.3867 5.27846 26.1074 5.94794L20.7582 18.7067L7.0545 19.8936C6.33091 19.9544 5.64138 20.2275 5.07238 20.6786C4.50337 21.1297 4.08022 21.7388 3.85599 22.4295C3.63177 23.1201 3.61644 23.8616 3.81194 24.5609C4.00744 25.2603 4.40506 25.8863 4.95493 26.3606L15.3514 35.4456L12.2354 48.9373C12.0707 49.6433 12.1177 50.3822 12.3706 51.0617C12.6235 51.7411 13.0711 52.331 13.6574 52.7574C14.2437 53.1839 14.9427 53.428 15.6671 53.4594C16.3914 53.4907 17.1089 53.3078 17.7298 52.9336L29.4837 45.7891L41.263 52.9336C41.8839 53.3078 42.6014 53.4907 43.3257 53.4594C44.0501 53.428 44.7491 53.1839 45.3354 52.7574C45.9217 52.331 46.3693 51.7411 46.6222 51.0617C46.8751 50.3822 46.9221 49.6433 46.7574 48.9373L43.6437 35.4318L54.0379 26.3606C54.5877 25.8847 54.9845 25.2568 55.1785 24.556C55.3724 23.8552 55.3549 23.1127 55.128 22.4218ZM51.6202 23.5742L41.2261 32.6454C40.7202 33.0855 40.3439 33.6551 40.1376 34.2931C39.9313 34.931 39.9029 35.6132 40.0553 36.2661L43.1782 49.7808L31.4081 42.6363C30.8339 42.2866 30.1745 42.1016 29.5022 42.1016C28.8298 42.1016 28.1704 42.2866 27.5962 42.6363L15.8423 49.7808L18.9444 36.2753C19.0968 35.6224 19.0684 34.9403 18.8621 34.3023C18.6558 33.6643 18.2795 33.0947 17.7736 32.6547L7.37486 23.588C7.37401 23.5811 7.37401 23.5742 7.37486 23.5673L21.0739 22.3827C21.7427 22.3237 22.3828 22.0833 22.925 21.6873C23.4672 21.2913 23.891 20.7548 24.1507 20.1356L29.4999 7.39298L34.8467 20.1356C35.1064 20.7548 35.5302 21.2913 36.0724 21.6873C36.6146 22.0833 37.2547 22.3237 37.9235 22.3827L51.6249 23.5673C51.6249 23.5673 51.6249 23.5811 51.6249 23.5834L51.6202 23.5742Z" fill="#EBA132"/>
</svg>
