<svg width="134" height="134" viewBox="0 0 134 134" fill="none" xmlns="http://www.w3.org/2000/svg">
<g clip-path="url(#clip0_52_443)">
<path d="M65.6914 0.287888C63.6238 1.1254 59.1746 7.09258 56.5574 12.5887C53.7832 18.3988 52.6316 23.1883 52.4223 29.8883L52.2652 34.5207L35.0965 34.5992L17.9277 34.6777L16.4098 35.2797C13.5309 36.4574 11.2277 38.8652 10.05 42.0059C9.57891 43.2621 9.55273 44.7277 9.47422 77.9137L9.3957 112.539H5.81016C0.785156 112.565 0.523438 112.801 0.523438 117.721C0.523438 123.243 1.64883 126.227 4.97266 129.551C7.22344 131.828 8.81992 132.744 11.6727 133.477C13.6617 134 14.7348 134 67 134C119.265 134 120.338 134 122.327 133.477C125.18 132.744 126.777 131.828 129.027 129.551C132.351 126.227 133.477 123.243 133.477 117.721C133.477 114.502 133.293 113.795 132.325 113.01C131.802 112.591 129.97 112.539 104.766 112.539C86.1055 112.539 77.5734 112.618 77.1285 112.827C76.3172 113.193 75.9246 113.874 75.6367 115.496C75.3227 117.041 74.773 117.904 73.543 118.768C72.7055 119.318 72.4699 119.344 67.0523 119.344C61.818 119.344 61.373 119.318 60.457 118.794C59.3055 118.14 58.4941 116.805 58.2586 115.13C58.1277 114.319 57.866 113.717 57.4211 113.298L56.7406 112.67L35.777 112.539L14.7871 112.408V78.2539V44.0734L15.4676 42.791C15.9387 41.875 16.4883 41.2469 17.4043 40.6973L18.6605 39.9121L35.8293 39.8336L52.998 39.7812L49.334 43.393C44.5445 48.0777 42.6863 50.852 41.273 55.3535C40.2 58.7559 39.9906 61.0066 40.0953 68.7797L40.1738 75.9508L40.9066 76.5789C42.0844 77.5996 43.3668 77.4426 44.9109 76.1078C46.2719 74.9301 53.5215 68.4395 54.8301 67.2355L55.6152 66.5027L56.9238 67.1309C58.7297 67.9945 61.8441 68.5965 65.5605 68.7535C70.2453 68.9629 76.0031 68.0469 77.4164 66.8691L78.123 66.2672L82.0488 69.8266C90.1098 77.0762 90.2406 77.207 91.366 77.207C92.0465 77.207 92.5961 76.9977 93.0934 76.5789L93.8262 75.9508L93.9047 68.7797C93.957 64.3305 93.8785 60.8496 93.6953 59.541C93.0672 55.2488 91.0781 50.5379 88.5395 47.4234C88.016 46.743 86.2363 44.8324 84.6137 43.1574C82.991 41.4824 81.6562 40.043 81.6562 39.9383C81.6562 39.8598 89.2199 39.8074 98.4848 39.8336L115.339 39.9121L116.596 40.6973C117.512 41.2469 118.061 41.875 118.532 42.791L119.213 44.0734L119.344 69.3031L119.475 94.5328L120.207 95.1609C121.856 96.5742 124.107 95.5012 124.447 93.1457C124.526 92.5176 124.578 81.0281 124.526 67.6543C124.447 44.5969 124.421 43.2359 123.95 42.0059C122.772 38.8914 120.469 36.4574 117.59 35.2797L116.072 34.6777L99.1391 34.5992L82.2059 34.5207L82.232 30.9352C82.232 20.7281 78.725 11.1492 71.9465 3.03593C69.6695 0.287888 67.759 -0.523438 65.6914 0.287888ZM68.7273 7.38047C72.9672 12.7719 75.7152 19.1316 76.6836 25.727C77.3379 30.1762 77.1285 33.5785 75.2441 48.5488C74.2758 56.3219 73.3598 62.7602 73.2027 62.8648C72.7316 63.1527 69.1199 63.5977 67.0523 63.5977C64.4875 63.5977 60.6926 63.0742 60.5617 62.7078C60.5094 62.5508 59.8289 56.1125 59.0176 48.3918C57.4473 33.2383 57.2902 29.3125 57.9969 25.2559C58.9652 19.7074 60.7188 15.0227 63.3359 10.9398C64.6707 8.89844 67.0523 5.75781 67.2617 5.75781C67.3664 5.75781 68.0207 6.49063 68.7273 7.38047ZM54.3066 53.4953C54.9609 59.7766 54.9609 60.0383 54.516 60.457C54.2543 60.6926 52.1082 62.6555 49.7266 64.8016C44.7277 69.3293 45.1465 69.4602 45.3559 63.4668C45.5129 58.8867 45.8531 57.3949 47.5281 53.9664C48.4703 52.0035 49.177 51.0613 51.1137 49.0461C52.4223 47.659 53.5215 46.6383 53.5738 46.743C53.6 46.8738 53.9402 49.9098 54.3066 53.4953ZM86.0793 53.1551C86.6551 54.2281 87.4664 56.034 87.8328 57.1855C88.4609 59.0438 88.5395 59.8289 88.6703 63.9641C88.775 68.0207 88.7488 68.5965 88.4086 68.4133C88.1992 68.2824 86.0008 66.3457 83.5145 64.1211C79.3008 60.3262 79.0129 60.0121 79.1437 59.2793C79.2223 58.8344 79.5887 55.8508 79.9812 52.6316L80.7141 46.7691L82.8602 48.9938C84.1426 50.3285 85.425 51.9773 86.0793 53.1551ZM53.9926 119.187C54.8039 120.94 56.5574 122.72 58.4156 123.714L59.8027 124.447H66.8691H73.9355L75.4012 123.741C76.1863 123.348 77.3641 122.484 77.9922 121.856C79.1176 120.705 80.3477 118.768 80.3477 118.114C80.3477 117.852 85.1633 117.773 104.295 117.773H128.242V119.004C128.242 121.699 127.274 124.002 125.363 125.913C123.924 127.352 122.641 128.059 120.705 128.478C118.742 128.896 15.2582 128.896 13.2953 128.478C11.3586 128.059 10.0762 127.352 8.63672 125.913C6.72617 124.002 5.75781 121.699 5.75781 119.004V117.773H29.548H53.3645L53.9926 119.187Z" fill="#C77A07"/>
<path d="M65.6127 25.4131C64.2518 26.1982 64.0947 28.5799 65.351 29.5744C66.8166 30.726 69.1721 29.9146 69.5123 28.1611C69.6955 27.1666 69.1197 25.8318 68.3346 25.3869C67.6803 25.0467 66.2147 25.0728 65.6127 25.4131Z" fill="#C77A07"/>
<path d="M23.1097 45.7223C22.0629 45.9316 21.2515 47.057 21.0683 48.4965C20.9898 49.2555 20.9375 62.2367 20.9898 77.3379C21.0683 103.327 21.0945 104.871 21.5394 105.551C21.8011 105.97 22.2984 106.389 22.6648 106.52C23.0836 106.677 40.1215 106.781 67.6543 106.781H112.016L112.853 106.022L113.717 105.263L113.795 76.7098C113.874 44.9895 113.952 46.6645 112.173 45.9316C111.44 45.6176 109.87 45.5391 104.871 45.5391C101.337 45.5391 98.1183 45.6176 97.6472 45.6961C95.5273 46.1148 94.7422 48.7582 96.3386 50.093L97.15 50.7734H102.882H108.613V76.1602V101.547H67.5234H26.4336V76.1602V50.7734H31.0398H35.6461L36.4051 50.0145C37.4519 48.9676 37.4519 47.6852 36.4051 46.5336L35.6461 45.6699L29.6527 45.6438C26.3812 45.6176 23.4238 45.6438 23.1097 45.7223Z" fill="#C77A07"/>
<path d="M72.8363 72.1553C72.5223 72.2076 71.9465 72.6264 71.5801 73.0451L70.9258 73.8564V82.624V91.3916L71.6848 92.1506C73.0195 93.4854 75.2703 93.0143 75.8723 91.2869C76.0555 90.7635 76.1602 87.5182 76.1602 82.5193C76.1602 73.5424 76.0816 73.0189 74.4852 72.3647C73.9617 72.1553 73.5168 71.9982 73.4906 71.9982C73.4383 72.0244 73.1504 72.1029 72.8363 72.1553Z" fill="#C77A07"/>
<path d="M58.7297 73.2295C57.6566 74.0932 57.5781 74.6166 57.5781 80.61C57.5781 86.6033 57.6566 87.1268 58.7297 87.9904C59.8551 88.9326 61.7918 88.4092 62.5246 86.9697C62.9172 86.1846 62.9172 75.0354 62.5246 74.2502C62.0535 73.3342 61.1898 72.7584 60.1953 72.7584C59.698 72.7584 59.0176 72.9678 58.7297 73.2295Z" fill="#C77A07"/>
<path d="M120.102 102.83C118.113 104.845 120.233 108.038 122.824 106.939C124.525 106.232 124.892 104.165 123.557 102.83C122.484 101.783 121.175 101.783 120.102 102.83Z" fill="#C77A07"/>
</g>
<defs>
<clipPath id="clip0_52_443">
<rect width="134" height="134" fill="white"/>
</clipPath>
</defs>
</svg>
