<svg width="45" height="45" viewBox="0 0 45 45" fill="none" xmlns="http://www.w3.org/2000/svg">
<path d="M28.9055 21.3293L20.468 15.7043C20.2561 15.563 20.0099 15.4818 19.7556 15.4695C19.5012 15.4572 19.2483 15.5141 19.0238 15.6343C18.7993 15.7545 18.6116 15.9334 18.4808 16.1519C18.3501 16.3704 18.2811 16.6204 18.2812 16.875V28.125C18.2811 28.3797 18.3501 28.6296 18.4808 28.8481C18.6116 29.0666 18.7993 29.2455 19.0238 29.3657C19.2483 29.4859 19.5012 29.5428 19.7556 29.5305C20.0099 29.5182 20.2561 29.437 20.468 29.2957L28.9055 23.6707C29.0984 23.5423 29.2565 23.3683 29.366 23.1641C29.4754 22.9598 29.5326 22.7317 29.5326 22.5C29.5326 22.2683 29.4754 22.0402 29.366 21.836C29.2565 21.6317 29.0984 21.4577 28.9055 21.3293ZM21.0938 25.4971V19.5117L25.5902 22.5L21.0938 25.4971ZM41.1908 12.2203C41.0252 11.5723 40.7079 10.9729 40.265 10.4717C39.8221 9.97046 39.2664 9.58171 38.6437 9.33751C32.618 7.01016 23.0273 7.03126 22.5 7.03126C21.9727 7.03126 12.382 7.01016 6.35625 9.33751C5.73357 9.58171 5.17787 9.97046 4.73501 10.4717C4.29215 10.9729 3.97481 11.5723 3.80918 12.2203C3.35391 13.9746 2.8125 17.1809 2.8125 22.5C2.8125 27.8191 3.35391 31.0254 3.80918 32.7797C3.97456 33.428 4.29179 34.0277 4.73466 34.5293C5.17754 35.0309 5.73337 35.4199 6.35625 35.6643C12.1289 37.8914 21.1641 37.9688 22.384 37.9688H22.616C23.8359 37.9688 32.8764 37.8914 38.6437 35.6643C39.2666 35.4199 39.8225 35.0309 40.2653 34.5293C40.7082 34.0277 41.0254 33.428 41.1908 32.7797C41.6461 31.0219 42.1875 27.8191 42.1875 22.5C42.1875 17.1809 41.6461 13.9746 41.1908 12.2203ZM38.468 32.0836C38.4144 32.2993 38.3105 32.4992 38.1647 32.6669C38.019 32.8347 37.8356 32.9655 37.6295 33.0486C32.066 35.1967 22.6037 35.158 22.5123 35.158H22.5C22.4051 35.158 12.9498 35.1932 7.38281 33.0486C7.17674 32.9655 6.99332 32.8347 6.84757 32.6669C6.70183 32.4992 6.59791 32.2993 6.54434 32.0836C6.11719 30.4787 5.625 27.5221 5.625 22.5C5.625 17.4779 6.11719 14.5213 6.53203 12.9252C6.58461 12.7083 6.68807 12.5069 6.83388 12.3379C6.97968 12.1689 7.16363 12.037 7.37051 11.9531C12.7354 9.88067 21.7248 9.84376 22.4613 9.84376H22.5088C22.6037 9.84376 32.0678 9.81212 37.626 11.9531C37.832 12.0363 38.0155 12.1671 38.1612 12.3349C38.307 12.5026 38.4109 12.7025 38.4645 12.9182C38.8828 14.5213 39.375 17.4779 39.375 22.5C39.375 27.5221 38.8828 30.4787 38.468 32.0748V32.0836Z" fill="#C77A07"/>
</svg>
